<?xml version="1.0" encoding="UTF-8"?>
<svg id="Layer_2" data-name="Layer 2" xmlns="http://www.w3.org/2000/svg" viewBox="0 0 3000 413.13">
  <defs>
    <style>
      .cls-1 {
        fill: #010302;
      }

      .cls-2 {
        fill: #3565ff;
      }
    </style>
  </defs>
  <g id="Layer_1-2" data-name="Layer 1">
    <g>
      <path class="cls-1" d="M0,212.74v-4.18C0,95.13,79.45,17.77,185.56,17.77c89.91,0,156.81,43.91,165.7,135.9h-86.77c-6.27-44.95-31.36-69-78.41-69-59.07,0-96.7,46-96.7,123.36v4.18c0,77.36,35.55,122.31,97.23,122.31,46.52,0,78.93-23.52,85.72-71.61h83.11c-9.41,92.52-75.79,140.09-167.79,140.09C65.34,403.01,0,327.74,0,212.74Z"/>
      <path class="cls-1" d="M352.18,321.47c0-63.77,58.54-87.82,142.18-87.82h30.84v-10.98c0-32.41-9.93-50.18-44.43-50.18-29.79,0-43.38,15.16-46.52,38.68h-71.61c4.7-64.82,55.93-93.57,122.84-93.57s114.47,27.18,114.47,101.41v178.25h-73.7v-32.93c-15.68,21.95-39.73,38.68-82.59,38.68-49.66,0-91.47-24.05-91.47-81.54ZM525.2,301.61v-23h-29.27c-43.91,0-69.52,9.41-69.52,38.68,0,19.86,12.02,32.93,39.73,32.93,33.45,0,59.07-18.3,59.07-48.61Z"/>
      <path class="cls-1" d="M610.96,264.49v-4.18c0-89.91,51.75-142.7,120.23-142.7,43.91,0,71.09,19.34,86.25,47.04V0h75.27v397.26h-75.27v-45.48c-14.11,27.71-47.57,51.23-87.82,51.23-66.38,0-118.66-47.57-118.66-138.52ZM819.52,261.88v-4.18c0-54.36-24.04-82.07-65.34-82.07s-65.86,28.75-65.86,83.11v4.18c0,54.36,26.14,81.02,63.77,81.02,39.73,0,67.43-26.66,67.43-82.07Z"/>
      <path class="cls-1" d="M903.23,263.97v-4.18c0-86.25,61.16-142.18,140.61-142.18,70.57,0,133.29,41.29,133.29,139.04v20.91h-197.06c2.09,45.48,26.66,71.61,67.95,71.61,35.02,0,52.27-15.16,56.98-38.16h71.61c-8.89,59.07-55.93,92-130.68,92-82.59,0-142.7-51.75-142.7-139.04ZM1103.43,231.04c-2.61-41.29-23.52-61.16-59.59-61.16-33.98,0-56.98,22.48-62.73,61.16h122.32Z"/>
      <path class="cls-1" d="M1188.42,123.88h75.79v43.38c13.59-27.18,43.38-49.66,88.86-49.66,53.84,0,92,32.41,92,105.59v174.06h-75.79v-163.09c0-37.11-14.64-54.89-48.09-54.89s-56.97,19.86-56.97,60.11v157.86h-75.79V123.88Z"/>
      <path class="cls-1" d="M1452.81,263.97v-4.18c0-88.34,63.25-142.18,141.13-142.18,63.25,0,121.79,27.71,128.59,106.11h-71.61c-5.23-31.88-24.57-46.52-55.41-46.52-39.2,0-65.34,29.27-65.34,81.54v4.18c0,54.89,24.57,83.11,66.91,83.11,30.32,0,54.89-17.77,58.55-52.79h68.47c-4.18,64.82-51.23,109.77-130.68,109.77s-140.61-49.66-140.61-139.04Z"/>
      <path class="cls-1" d="M1733.36,263.97v-4.18c0-86.25,61.16-142.18,140.61-142.18,70.57,0,133.29,41.29,133.29,139.04v20.91h-197.06c2.09,45.48,26.66,71.61,67.95,71.61,35.02,0,52.27-15.16,56.98-38.16h71.61c-8.89,59.07-55.93,92-130.68,92-82.59,0-142.7-51.75-142.7-139.04ZM1933.56,231.04c-2.61-41.29-23.52-61.16-59.59-61.16-33.98,0-56.98,22.48-62.73,61.16h122.32Z"/>
      <path class="cls-1" d="M2123.51,23.52h84.68v307.36h152.11v66.38h-236.79V23.52Z"/>
      <path class="cls-1" d="M2362.8,321.47c0-63.77,58.54-87.82,142.18-87.82h30.84v-10.98c0-32.41-9.93-50.18-44.43-50.18-29.79,0-43.38,15.16-46.52,38.68h-71.61c4.7-64.82,55.93-93.57,122.84-93.57s114.47,27.18,114.47,101.41v178.25h-73.7v-32.93c-15.68,21.95-39.73,38.68-82.59,38.68-49.66,0-91.47-24.05-91.47-81.54ZM2535.82,301.61v-23h-29.27c-43.91,0-69.52,9.41-69.52,38.68,0,19.86,12.02,32.93,39.73,32.93,33.45,0,59.07-18.3,59.07-48.61Z"/>
      <path class="cls-1" d="M2697.47,353.88v43.38h-75.79V0h75.79v166.74c15.16-26.14,47.04-49.14,87.29-49.14,66.91,0,119.18,49.66,119.18,140.09v4.18c0,90.43-51.23,141.13-119.18,141.13-42.34,0-73.18-20.91-87.29-49.14ZM2827.11,262.4v-4.18c0-55.41-27.18-82.59-65.34-82.59s-66.91,27.7-66.91,82.59v4.18c0,54.89,26.13,81.54,67.43,81.54s64.82-28.23,64.82-81.54Z"/>
      <path class="cls-2" d="M2890.85,359.47c0-29.27,23.78-53.05,54.27-53.05s54.88,23.78,54.88,53.05-23.78,53.66-54.88,53.66-54.27-23.78-54.27-53.66Z"/>
    </g>
  </g>
</svg>