<?xml version="1.0" encoding="UTF-8"?>
<svg id="Layer_2" data-name="Layer 2" xmlns="http://www.w3.org/2000/svg" viewBox="0 0 3705.69 3706.296">
  <g id="Layer_1-2" data-name="Layer 1">
    <g>
      <path d="M3138.207,3062.307c-67.456,103.54-204.679,131.737-306.787,65.637-104.418-67.486-132.602-202.921-65.146-306.923,67.456-104.003,204.679-131.737,306.787-65.637,102.108,66.099,131.216,205.232,65.146,306.923Z" fill="#4fd34a"/>
      <path d="M544.2,3159.849c-724.306-725.305-725.435-1902.052-4.36-2622.061,721.075-720.01,1897.856-716.876,2622.162,8.429,411.997,412.569,607.756,1002.525,525.06,1581.117l-384.556-59.135-442.205-68.164c45.231-321.802-57.256-638.336-288.935-870.451-396.071-396.393-1044.854-398.591-1442.248-2.261-397.491,396.782-399.463,1042.303-.355,1442.183,225.51,225.592,531.438,331.736,846.922,293.809l52.909,428.87,49.737,401.71c-568.157,65.183-1128.659-128.548-1533.937-534.95" fill="#0a0c10"/>
    </g>
  </g>
</svg>