<?xml version="1.0" encoding="UTF-8"?><svg id="uuid-bc7975a2-17d0-4ac1-bd39-c629e647256d" xmlns="http://www.w3.org/2000/svg" viewBox="0 0 4096 800"><g id="uuid-09fdbcc8-0a70-45a1-9e4d-6c74809bb230"><path d="M65,413.938v-5.587c0-151.589,104.889-254.977,244.97-254.977,118.69,0,207.017,58.68,218.749,181.626h-114.55c-8.28-60.077-41.403-92.21-103.509-92.21-77.976,0-127.66,61.473-127.66,164.861v5.589c0,103.388,46.923,163.464,128.35,163.464,61.415,0,104.199-31.436,113.17-95.705h109.72c-12.421,123.646-100.058,187.217-221.509,187.217-161.474,0-247.731-100.594-247.731-254.279Z" fill="#f4f5f7"/><path d="M544.553,559.473c0-84.582,77.844-116.473,189.05-116.473h41.397v-14.651c0-43.257-13.154-66.979-58.847-66.979-39.462,0-57.462,20.233-61.616,51.63h-94.847c6.231-86.515,74.077-124.889,162.693-124.889s151.616,36.28,151.616,135.354v236.534h-98v-43.677c-20.851,29.118-52.823,51.304-109.816,51.304-66.028,0-121.631-31.892-121.631-108.154ZM774,532.617v-30.617h-38.968c-58.452,0-92.548,12.526-92.548,51.493,0,26.443,16.005,43.84,52.885,43.84,44.535,0,78.632-24.355,78.632-64.716Z" fill="#f4f5f7"/><path d="M894,483.253v-5.567c0-119.686,68.924-189.968,160.127-189.968,58.481,0,94.684,25.747,114.873,62.628v-219.346h101v529h-101v-60.54c-18.797,36.881-63.354,68.195-116.962,68.195-88.418,0-158.038-63.324-158.038-184.402ZM1171,479.877v-5.546c0-72.094-31.889-108.836-86.653-108.836-56.152,0-87.347,38.128-87.347,110.224v5.545c0,72.096,34.661,107.45,84.574,107.45,52.685,0,89.426-35.354,89.426-108.836Z" fill="#f4f5f7"/><path d="M1293,482.483v-5.539c.155-114.229,81.497-188.306,187.171-188.306,93.856,0,177.283,54.692,177.829,184.151v27.211h-262.646c2.78,60.712,35.456,95.326,90.379,95.326,46.58,0,69.523-20.076,75.779-50.326h95.246c-11.819,78.018-74.389,121.634-173.807,121.634-109.845,0-189.797-68.538-189.952-184.151ZM1559.533,439c-3.479-54.973-31.314-81.414-79.328-81.414-45.23,0-75.848,29.921-83.502,81.414h162.83Z" fill="#f4f5f7"/><path d="M1689,297h101v57.768c18.035-36.191,57.573-66.119,117.919-66.119,71.445,0,122.081,43.151,122.081,140.589v231.763h-101v-217.106c0-49.405-19.363-73.066-63.622-73.066-42.876,0-75.378,26.443-75.378,80.024v210.147h-101v-364Z" fill="#f4f5f7"/><path d="M2053,482.264v-5.534c0-116.902,84.21-188.151,187.906-188.151,84.208,0,162.154,36.663,171.202,140.422h-95.346c-6.96-42.195-32.71-61.564-73.77-61.564-52.195,0-86.993,38.736-86.993,107.91v5.533c0,72.633,32.71,109.986,89.081,109.986,40.366,0,73.074-23.518,77.947-69.865h91.167c-5.566,85.773-68.202,145.264-173.985,145.264-106.48,0-187.21-65.715-187.21-184Z" fill="#f4f5f7"/><path d="M2426,482.483v-5.539c1.176-114.229,82.519-188.306,188.193-188.306,93.855,0,177.284,54.692,176.807,184.151v27.211h-261.624c2.78,60.712,35.456,95.326,90.379,95.326,46.581,0,69.522-20.076,75.78-50.326h95.246c-11.819,78.018-74.388,121.634-173.806,121.634-109.846,0-189.799-68.538-190.975-184.151ZM2693.074,439c-3.479-54.973-31.314-81.414-79.328-81.414-45.229,0-75.847,29.921-83.502,81.414h162.83Z" fill="#f4f5f7"/><path d="M2909,163h113v409h202v89h-315V163Z" fill="#f4f5f7"/><path d="M3228.188,559.473c0-84.582,78.638-116.473,190.98-116.473h42.832v-14.651c0-43.257-13.153-66.979-58.845-66.979-39.462,0-57.461,20.233-61.616,51.63h-94.845c6.23-86.515,74.076-124.889,162.691-124.889s151.615,36.28,151.615,135.354v236.534h-99v-43.677c-21.064,29.118-53.364,51.304-110.938,51.304-66.704,0-122.874-31.892-122.874-108.154ZM3460,532.617v-30.617h-38.967c-58.452,0-92.548,12.526-92.548,51.493,0,26.443,16.005,43.84,52.885,43.84,44.535,0,78.631-24.355,78.631-64.716Z" fill="#f4f5f7"/><path d="M3688,602.092v57.908h-101V131h101v221.976c20.189-34.793,62.659-65.41,116.265-65.41,89.114,0,158.735,66.107,158.735,186.488v5.567c0,120.383-68.229,187.881-158.735,187.881-56.392,0-97.468-27.835-116.265-65.41ZM3861,480.583v-5.566c0-73.739-36.174-109.914-86.956-109.914-52.869,0-89.044,36.871-89.044,109.914v5.566c0,73.043,34.783,108.521,89.74,108.521,55.651,0,86.26-37.565,86.26-108.521Z" fill="#f4f5f7"/><path d="M3944.141,619.893c0-23.38,18.997-42.377,43.352-42.377,24.843,0,43.84,18.997,43.84,42.377,0,23.868-18.997,42.865-43.84,42.865-24.355,0-43.352-18.997-43.352-42.865Z" fill="#f4f5f7"/></g></svg>