<?xml version="1.0" encoding="UTF-8"?><svg id="uuid-25482b1d-c067-49ce-9eb9-a1bf14e565da" xmlns="http://www.w3.org/2000/svg" viewBox="0 0 4096 800"><g id="uuid-5226ac1a-f755-42f9-a3ae-7f3ae876eb40"><path d="M61.667,414.104v-5.587c0-151.589,104.889-254.977,244.97-254.977,118.69,0,207.017,58.68,218.749,181.626h-114.55c-8.28-60.077-41.403-92.21-103.509-92.21-77.976,0-127.66,61.473-127.66,164.861v5.589c0,103.388,46.923,163.464,128.35,163.464,61.415,0,104.199-31.436,113.17-95.705h109.72c-12.421,123.646-100.058,187.217-221.509,187.217-161.474,0-247.731-100.594-247.731-254.279Z" fill="#0a0c10"/><path d="M544.581,560.176c0-84.972,77.05-117.01,187.121-117.01h39.964v-14.651c0-43.257-13.154-66.979-58.847-66.979-39.462,0-57.462,20.233-61.616,51.63h-94.847c6.231-86.515,74.077-124.889,162.693-124.889s151.616,36.28,151.616,135.354v237.534h-97v-43.878c-20.639,29.252-52.284,51.54-108.696,51.54-65.354,0-120.39-32.039-120.39-108.652ZM771.667,532.835v-30.669h-39.034c-58.55,0-92.704,12.547-92.704,51.58,0,26.488,16.032,43.913,52.973,43.913,44.609,0,78.764-24.396,78.764-64.824Z" fill="#0a0c10"/><path d="M892.667,484.122v-5.577c0-119.888,68.924-190.287,160.127-190.287,58.481,0,94.684,25.79,114.873,62.733v-219.825h101v530h-101v-60.642c-18.797,36.943-63.354,68.31-116.962,68.31-88.418,0-158.038-63.431-158.038-184.712ZM1168.667,480.173v-5.546c0-72.094-31.889-108.836-86.653-108.836-56.152,0-87.347,38.128-87.347,110.224v5.545c0,72.096,34.661,107.45,84.574,107.45,52.685,0,89.426-35.354,89.426-108.836Z" fill="#0a0c10"/><path d="M1291.667,483.649v-5.539c.156-114.229,81.72-188.306,187.684-188.306,94.113,0,177.769,54.692,178.316,184.151v27.211h-263.365c2.788,60.712,35.553,95.326,90.627,95.326,46.707,0,69.713-20.076,75.987-50.326h95.507c-11.851,78.018-74.593,121.634-174.283,121.634-110.146,0-190.317-68.538-190.473-184.151ZM1558.379,439.166c-3.485-55.065-31.366-81.551-79.461-81.551-45.306,0-75.975,29.971-83.642,81.551h163.103Z" fill="#0a0c10"/><path d="M1688.667,297.166h101v57.768c18.035-36.191,57.573-66.119,117.919-66.119,71.445,0,122.081,43.151,122.081,140.589v231.763h-101v-217.471c0-49.488-19.363-73.188-63.622-73.188-42.876,0-75.378,26.488-75.378,80.159v210.5h-101v-364Z" fill="#0a0c10"/><path d="M2052.667,482.43v-5.534c0-116.902,84.21-188.151,187.906-188.151,84.208,0,162.154,36.663,171.202,140.422h-95.346c-6.96-42.195-32.71-61.564-73.77-61.564-52.195,0-86.993,38.736-86.993,107.91v5.533c0,72.633,32.71,109.986,89.081,109.986,40.366,0,73.074-23.518,77.947-69.865h91.167c-5.566,85.773-68.202,145.264-173.985,145.264-106.48,0-187.21-65.715-187.21-184Z" fill="#0a0c10"/><path d="M2425.667,483.649v-5.539c1.179-114.229,82.745-188.306,188.709-188.306,94.113,0,177.77,54.692,177.291,184.151v27.211h-262.341c2.788,60.712,35.553,95.326,90.627,95.326,46.708,0,69.713-20.076,75.988-50.326h95.507c-11.851,78.018-74.592,121.634-174.282,121.634-110.147,0-190.319-68.538-191.498-184.151ZM2693.824,439.166c-3.485-55.065-31.366-81.551-79.461-81.551-45.305,0-75.974,29.971-83.642,81.551h163.103Z" fill="#0a0c10"/><path d="M2910.667,163.166h113v409h202v89h-315V163.166Z" fill="#0a0c10"/><path d="M3230.855,560.176c0-84.972,78.638-117.01,190.98-117.01h42.832v-14.651c0-43.257-13.153-66.979-58.845-66.979-39.462,0-57.461,20.233-61.616,51.63h-94.845c6.23-86.515,74.076-124.889,162.691-124.889s151.615,36.28,151.615,135.354v237.534h-99v-43.878c-21.064,29.252-53.364,51.54-110.938,51.54-66.704,0-122.874-32.039-122.874-108.652ZM3462.667,532.835v-30.669h-39.033c-58.55,0-92.704,12.547-92.704,51.58,0,26.488,16.032,43.913,52.973,43.913,44.609,0,78.763-24.396,78.763-64.824Z" fill="#0a0c10"/><path d="M3690.667,603.05v58.116h-101V131.166h101v222.349c20.189-34.852,62.659-65.52,116.265-65.52,89.114,0,158.735,66.218,158.735,186.802v5.577c0,120.585-68.229,188.197-158.735,188.197-56.392,0-97.468-27.881-116.265-65.52ZM3863.667,480.879v-5.566c0-73.739-36.174-109.914-86.956-109.914-52.869,0-89.044,36.871-89.044,109.914v5.566c0,73.043,34.783,108.521,89.74,108.521,55.651,0,86.26-37.565,86.26-108.521Z" fill="#0a0c10"/><path d="M3946.995,620.428c0-23.419,19.029-42.448,43.425-42.448,24.885,0,43.913,19.029,43.913,42.448,0,23.908-19.029,42.937-43.913,42.937-24.396,0-43.425-19.029-43.425-42.937Z" fill="#0a0c10"/></g></svg>